<?xml version="1.0" encoding="utf-8" ?>
<svg xmlns="http://www.w3.org/2000/svg" xmlns:xlink="http://www.w3.org/1999/xlink" width="24" height="24" viewBox="0 0 24 24">
	<defs>
		<clipPath id="clipPath0082243677">
			<path transform="matrix(1 0 0 1 0 0)" d="M0 0L24 0L24 24L0 24L0 0Z" fill-rule="nonzero"/>
		</clipPath>
	</defs>
	<g clip-path="url(#clipPath0082243677)">
		<path transform="matrix(1 0 0 1 0 0)" d="M6 2C5.44772 2 5 2.44772 5 3L5 15C5 15.5523 5.44772 16 6 16C6.55228 16 7 15.5523 7 15L7 3C7 2.44772 6.55228 2 6 2Z" fill-rule="evenodd" fill="rgb(37, 99, 235)"/>
		<path transform="matrix(1 0 0 1 0 0)" d="M18 2Q18.8128 2 19.5571 2.31501Q20.2748 2.61883 20.828 3.17199Q21.3812 3.72515 21.685 4.44294Q22 5.18717 22 6Q22 6.81283 21.685 7.55705Q21.3812 8.27485 20.828 8.82801Q20.2748 9.38118 19.5571 9.68499Q18.8128 10 18 10Q17.1872 10 16.4429 9.68499Q15.7252 9.38118 15.172 8.82801Q14.6188 8.27485 14.315 7.55706Q14 6.81283 14 6Q14 5.18717 14.315 4.44294Q14.6188 3.72516 15.172 3.17199Q15.7252 2.61882 16.4429 2.31501Q17.1872 2 18 2ZM18 4Q17.1724 4 16.5862 4.5862Q16 5.17241 16 6Q16 6.8276 16.5862 7.4138Q17.1724 8 18 8Q18.8276 8 19.4138 7.4138Q20 6.8276 20 6Q20 5.1724 19.4138 4.5862Q18.8276 4 18 4Z" fill-rule="evenodd" fill="rgb(37, 99, 235)"/>
		<path transform="matrix(1 0 0 1 0 0)" d="M6 14Q6.81283 14 7.55705 14.315Q8.27484 14.6188 8.82801 15.172Q9.38118 15.7252 9.68499 16.4429Q10 17.1872 10 18Q10 18.8128 9.68499 19.5571Q9.38118 20.2748 8.82801 20.828Q8.27485 21.3812 7.55706 21.685Q6.81283 22 6 22Q5.18717 22 4.44294 21.685Q3.72515 21.3812 3.17199 20.828Q2.61883 20.2748 2.31501 19.5571Q2 18.8128 2 18Q2 17.1872 2.31501 16.4429Q2.61882 15.7252 3.17199 15.172Q3.72515 14.6188 4.44294 14.315Q5.18717 14 6 14ZM6 16Q5.1724 16 4.5862 16.5862Q4 17.1724 4 18Q4 18.8276 4.5862 19.4138Q5.1724 20 6 20Q6.8276 20 7.4138 19.4138Q8 18.8276 8 18Q8 17.1724 7.4138 16.5862Q6.82759 16 6 16Z" fill-rule="evenodd" fill="rgb(37, 99, 235)"/>
		<path transform="matrix(1 0 0 1 0 0)" d="M18 8C17.4477 8 17 8.44772 17 9Q17 10.6268 16.3714 12.112Q15.7638 13.5474 14.6556 14.6556Q13.5474 15.7638 12.112 16.3714Q10.6268 17 9 17C8.44772 17 8 17.4477 8 18C8 18.5523 8.44772 19 9 19Q11.0326 19 12.8916 18.2132Q14.686 17.4537 16.0698 16.0698Q17.4537 14.686 18.2132 12.8916Q19 11.0326 19 9C19 8.44772 18.5523 8 18 8Z" fill-rule="evenodd" fill="rgb(37, 99, 235)"/>
	</g>
</svg>
