<?xml version="1.0" encoding="utf-8" ?>
<svg xmlns="http://www.w3.org/2000/svg" xmlns:xlink="http://www.w3.org/1999/xlink" width="55.9949" height="52" viewBox="0 0 55.9949 52">
	<defs>
		<filter id="filter6920478506" filterUnits="userSpaceOnUse" color-interpolation-filters="sRGB">
			<feComponentTransfer in="SourceAlpha" result="componentTransfer8725761427">
				<feFuncR type="linear" slope="0" intercept="0"/>
				<feFuncG type="linear" slope="0" intercept="0"/>
				<feFuncB type="linear" slope="0" intercept="0"/>
				<feFuncA type="linear" slope="10000" intercept="0"/>
			</feComponentTransfer>
			<feComponentTransfer in="componentTransfer8725761427" result="componentTransfer1682218329">
				<feFuncA type="linear" slope="0.2" intercept="0"/>
			</feComponentTransfer>
			<feOffset dx="0" dy="4" in="componentTransfer1682218329" result="offset3945532991"/>
			<feGaussianBlur stdDeviation="2" in="offset3945532991" result="gaussianBlur7942977543"/>
			<feMerge>
				<feMergeNode in="gaussianBlur7942977543"/>
				<feMergeNode in="SourceGraphic"/>
			</feMerge>
		</filter>
	</defs>
	<g filter="url(#filter6920478506)">
		<defs>
			<clipPath id="clipPath3994629188">
				<path transform="matrix(1 0 0 1 4 0)" d="M0 0L48 0L48 48L0 48L0 0Z" fill-rule="nonzero"/>
			</clipPath>
		</defs>
		<g clip-path="url(#clipPath3994629188)">
			<path transform="matrix(1 0 0 1 4 0)" d="M24 26.8284L30.5858 33.4142C31.3668 34.1953 32.6332 34.1953 33.4142 33.4142C34.1953 32.6332 34.1953 31.3668 33.4142 30.5858L25.4142 22.5858Q25.3447 22.5163 25.2688 22.454Q25.1928 22.3916 25.1111 22.3371Q25.0294 22.2825 24.9428 22.2362Q24.8561 22.1898 24.7654 22.1522Q24.6746 22.1146 24.5806 22.0861Q24.4865 22.0576 24.3902 22.0384Q24.2938 22.0193 24.196 22.0096Q24.0983 22 24 22Q23.9017 22 23.804 22.0096Q23.7062 22.0193 23.6098 22.0384Q23.5135 22.0576 23.4194 22.0861Q23.3254 22.1146 23.2346 22.1522Q23.1439 22.1898 23.0572 22.2362Q22.9706 22.2825 22.8889 22.3371Q22.8072 22.3916 22.7312 22.454Q22.6553 22.5163 22.5858 22.5858L14.5858 30.5858C13.8047 31.3668 13.8047 32.6332 14.5858 33.4142C15.3668 34.1953 16.6332 34.1953 17.4142 33.4142L24 26.8284Z" fill-rule="evenodd" fill="rgb(37, 99, 235)"/>
			<path transform="matrix(1 0 0 1 4 0)" d="M24 22C22.8954 22 22 22.8954 22 24L22 42C22 43.1046 22.8954 44 24 44C25.1046 44 26 43.1046 26 42L26 24C26 22.8954 25.1046 22 24 22Z" fill-rule="evenodd" fill="rgb(37, 99, 235)"/>
			<path transform="matrix(1 0 0 1 4 0)" d="M41.9168 33.3785Q41.0116 34.3758 39.8227 35.024C38.8529 35.5527 38.4953 36.7675 39.024 37.7373C39.5527 38.7071 40.7675 39.0647 41.7373 38.536Q43.5195 37.5644 44.8787 36.0668Q46.2036 34.607 46.993 32.7967Q47.7825 30.9863 47.9507 29.0222Q48.1233 27.0071 47.6226 25.0401Q47.1219 23.073 46.007 21.3856Q44.9202 19.7409 43.3613 18.5283Q41.8024 17.3156 39.9409 16.6669Q38.0311 16.0013 36.0013 16L34.9592 16Q34.3085 14.1562 33.2664 12.4844Q31.8392 10.1948 29.8005 8.42201Q27.7618 6.64921 25.2962 5.5538Q22.7772 4.43464 20.0313 4.12111Q17.2854 3.80759 14.5789 4.3301Q11.9298 4.84154 9.54398 6.10913Q7.15812 7.37673 5.25156 9.28567Q3.30368 11.236 2.02651 13.687Q0.749351 16.1379 0.266803 18.8518Q-0.205507 21.5081 0.122438 24.1898Q0.450384 26.8716 1.54888 29.3358Q2.67118 31.8534 4.50133 33.9244C5.23276 34.7521 6.4967 34.8301 7.32439 34.0987C8.15207 33.3672 8.2301 32.1033 7.49867 31.2756Q6.0748 29.6644 5.20231 27.7071Q4.34801 25.7907 4.09286 23.7043Q3.83771 21.6179 4.20503 19.5521Q4.58017 17.4423 5.57381 15.5354Q6.56744 13.6285 8.08175 12.1123Q9.56449 10.6277 11.4207 9.64153Q13.277 8.65532 15.3371 8.25758Q17.4412 7.85137 19.5775 8.09529Q21.7139 8.33921 23.6722 9.20926Q25.5897 10.0612 27.1758 11.4404Q28.762 12.8197 29.8719 14.6003Q31.0055 16.4188 31.5437 18.5006Q31.585 18.6605 31.652 18.8114Q31.7189 18.9623 31.8098 19.1001Q31.9006 19.238 32.0128 19.3591Q32.125 19.4803 32.2555 19.5813Q32.386 19.6824 32.5314 19.7607Q32.6767 19.839 32.833 19.8924Q32.9892 19.9459 33.152 19.9729Q33.3149 20 33.48 20L35.9987 20Q37.3528 20.0009 38.6246 20.4441Q39.8653 20.8765 40.9054 21.6855Q41.9454 22.4945 42.6697 23.5907Q43.4122 24.7144 43.7462 26.0267Q44.0802 27.339 43.9653 28.6809Q43.8532 29.99 43.3265 31.1978Q42.7998 32.4056 41.9168 33.3785Z" fill-rule="evenodd" fill="rgb(37, 99, 235)"/>
			<path transform="matrix(1 0 0 1 4 0)" d="M24 26.8284L30.5858 33.4142C31.3668 34.1953 32.6332 34.1953 33.4142 33.4142C34.1953 32.6332 34.1953 31.3668 33.4142 30.5858L25.4142 22.5858Q25.3447 22.5163 25.2688 22.454Q25.1928 22.3916 25.1111 22.3371Q25.0294 22.2825 24.9428 22.2362Q24.8561 22.1898 24.7654 22.1522Q24.6746 22.1146 24.5806 22.0861Q24.4865 22.0576 24.3902 22.0384Q24.2938 22.0193 24.196 22.0096Q24.0983 22 24 22Q23.9017 22 23.804 22.0096Q23.7062 22.0193 23.6098 22.0384Q23.5135 22.0576 23.4194 22.0861Q23.3254 22.1146 23.2346 22.1522Q23.1439 22.1898 23.0572 22.2362Q22.9706 22.2825 22.8889 22.3371Q22.8072 22.3916 22.7312 22.454Q22.6553 22.5163 22.5858 22.5858L14.5858 30.5858C13.8047 31.3668 13.8047 32.6332 14.5858 33.4142C15.3668 34.1953 16.6332 34.1953 17.4142 33.4142L24 26.8284Z" fill-rule="evenodd" fill="rgb(37, 99, 235)"/>
		</g>
	</g>
</svg>
