<?xml version="1.0" encoding="utf-8" ?>
<svg xmlns="http://www.w3.org/2000/svg" xmlns:xlink="http://www.w3.org/1999/xlink" width="36" height="36" viewBox="0 0 36 36">
	<defs>
		<clipPath id="clipPath1314266104">
			<path transform="matrix(1 0 0 1 8 8)" d="M0 0L20 0L20 20L0 20L0 0Z" fill-rule="nonzero"/>
		</clipPath>
	</defs>
	<g clip-path="url(#clipPath1314266104)">
		<path transform="matrix(1 0 0 1 8 8)" d="M6.24792 2.25683Q7.64221 1.66667 9.16667 1.66667Q10.6911 1.66667 12.0854 2.25683Q13.4312 2.82646 14.469 3.86429Q15.5069 4.90213 16.0765 6.24792Q16.6667 7.64221 16.6667 9.16667Q16.6667 10.6911 16.0765 12.0854Q15.5069 13.4312 14.469 14.469Q13.4312 15.5069 12.0854 16.0765Q10.6911 16.6667 9.16667 16.6667Q7.64221 16.6667 6.24792 16.0765Q4.90213 15.5069 3.86429 14.469Q2.82645 13.4312 2.25683 12.0854Q1.66667 10.6911 1.66667 9.16667Q1.66667 7.64221 2.25683 6.24792Q2.82646 4.90212 3.86429 3.86429Q4.90213 2.82645 6.24792 2.25683ZM9.16667 3.33333Q7.98041 3.33333 6.89756 3.79167Q5.85093 4.23467 5.0428 5.0428Q4.23467 5.85093 3.79167 6.89756Q3.33333 7.98041 3.33333 9.16667Q3.33333 10.3529 3.79167 11.4358Q4.23467 12.4824 5.0428 13.2905Q5.85093 14.0987 6.89756 14.5417Q7.98041 15 9.16667 15Q10.3529 15 11.4358 14.5417Q12.4824 14.0987 13.2905 13.2905Q14.0987 12.4824 14.5417 11.4358Q15 10.3529 15 9.16667Q15 7.98041 14.5417 6.89756Q14.0987 5.85093 13.2905 5.0428Q12.4824 4.23467 11.4358 3.79167Q10.3529 3.33333 9.16667 3.33333Z" fill-rule="evenodd" fill="rgb(75, 85, 99)"/>
		<path transform="matrix(1 0 0 1 8 8)" d="M13.2857 14.4643C12.9603 14.1388 12.9603 13.6112 13.2857 13.2857C13.6112 12.9603 14.1388 12.9603 14.4643 13.2857L18.0893 16.9107C18.4147 17.2362 18.4147 17.7638 18.0893 18.0893C17.7638 18.4147 17.2362 18.4147 16.9107 18.0893L13.2857 14.4643Z" fill-rule="evenodd" fill="rgb(75, 85, 99)"/>
		<path transform="matrix(1 0 0 1 8 8)" d="M9.16667 5.83333C8.70643 5.83333 8.33333 6.20643 8.33333 6.66667L8.33333 11.6667C8.33333 12.1269 8.70643 12.5 9.16667 12.5C9.6269 12.5 10 12.1269 10 11.6667L10 6.66667C10 6.20643 9.6269 5.83333 9.16667 5.83333Z" fill-rule="evenodd" fill="rgb(75, 85, 99)"/>
		<path transform="matrix(1 0 0 1 8 8)" d="M5.83333 9.16667C5.83333 9.6269 6.20643 10 6.66667 10L11.6667 10C12.1269 10 12.5 9.6269 12.5 9.16667C12.5 8.70643 12.1269 8.33333 11.6667 8.33333L6.66667 8.33333C6.20643 8.33333 5.83333 8.70643 5.83333 9.16667Z" fill-rule="evenodd" fill="rgb(75, 85, 99)"/>
	</g>
</svg>
